<svg width="400" height="113" viewBox="0 0 400 113" fill="none" xmlns="http://www.w3.org/2000/svg">
<path d="M57.9443 112.5L34.0193 64.9375H0.0317535V112.5H12.7505V77.6562H33.0381L51.3443 112.5H57.9443Z" fill="#FF8C00"/>
<path d="M57.6942 0.5L33.7692 48.0625H-0.218247V0.5H-12.937V60.5H32.788L51.0942 25.5H57.6942L39.388 60.5H62.9005V0.5H57.6942Z" fill="#FF8C00"/>
<path d_v2="M93.038 64.9375L69.113 112.5H62.513L80.8192 77.5312H60.5318V64.9375H93.038Z" d="M93.0381 64.9375L69.1131 112.5H86.4506L104.757 77.5312H84.4696V64.9375H93.0381Z" fill="#FF8C00"/>
<path d="M80.6941 48.0625L104.619 0.5H98.0191L80.038 35.3438H60.2505V48.0625H80.6941Z" fill="#FF8C00"/>
<path d="M129.201 112.5L105.276 64.9375H92.5568V112.5H105.276V77.6562L123.582 112.5H129.201Z" fill="#FF8C00"/>
<path d="M117.891 0.5H130.61V60.5H117.891V0.5Z" fill="#FF8C00"/>
<path d="M165.451 112.5L141.526 64.9375H128.807V112.5H141.526V77.6562L159.832 112.5H165.451Z" fill="#FF8C00"/>
<path d="M154.141 0.5H166.86V60.5H154.141V0.5Z" fill="#FF8C00"/>
<path d="M189.038 64.9375L165.113 112.5H177.832L196.138 77.5312H175.851V64.9375H189.038Z" fill="#FF8C00"/>
<path d="M224.201 112.5L200.276 64.9375H187.557V112.5H200.276V77.6562L218.582 112.5H224.201Z" fill="#FF8C00"/>
<path d="M212.891 0.5H225.61V60.5H212.891V0.5Z" fill="#FF8C00"/>
<path d="M260.451 112.5L236.526 64.9375H223.807V112.5H236.526V77.6562L254.832 112.5H260.451Z" fill="#FF8C00"/>
<path d="M249.141 0.5H261.86V60.5H249.141V0.5Z" fill="#FF8C00"/>
<path d="M276.038 64.9375V112.5H288.757V64.9375H276.038Z" fill="#FF8C00"/>
<path d="M324.201 112.5L300.276 64.9375H287.557V112.5H300.276V77.6562L318.582 112.5H324.201Z" fill="#FF8C00"/>
<path d="M312.891 0.5H325.61V60.5H312.891V0.5Z" fill="#FF8C00"/>
<path d="M359.113 112.5H332.038V64.9375H359.113V77.6562H344.757V83.8125H358.132V95.4375H344.757V100.125H359.113V112.5Z" fill="#FF8C00"/>
<path d="M359.113 0.5H332.038V60.5H359.113V47.7812H344.757V41.625H358.42V12.9375H344.757V29.2188H345.469V18.75H359.113V0.5Z" fill="#FF8C00"/>
<path d="M399.701 112.5L375.776 64.9375H363.057V112.5H375.776V77.6562L394.082 112.5H399.701Z" fill="#FF8C00"/>
<path d="M388.391 0.5H401.11V60.5H388.391V0.5Z" fill="#FF8C00"/>
</svg>
